<svg viewBox="0 0 24 24" fill="currentColor" stroke-width="0">
	<path d="M 18.599609 2.6855469C 18.04561 2.6855469 17.599609 3.1315474 17.599609 3.6855469L 17.599609 20.314453C 17.599609 20.868453 18.04561 21.314453 18.599609 21.314453C 19.153609 21.314453 19.599609 20.868453 19.599609 20.314453L 19.599609 3.6855469C 19.599609 3.1315474 19.153609 2.6855469 18.599609 2.6855469zM 5.4003906 4.8125C 4.8463912 4.8125 4.4003906 5.2585006 4.4003906 5.8125L 4.4003906 18.1875C 4.4003906 18.741499 4.8463912 19.1875 5.4003906 19.1875C 5.9543901 19.1875 6.4003906 18.741499 6.4003906 18.1875L 6.4003906 5.8125C 6.4003906 5.2585006 5.9543901 4.8125 5.4003906 4.8125zM 14.199219 6.2675781C 13.645219 6.2675781 13.199219 6.7135787 13.199219 7.2675781L 13.199219 16.732422C 13.199219 17.286421 13.645219 17.732422 14.199219 17.732422C 14.753218 17.732422 15.199219 17.286421 15.199219 16.732422L 15.199219 7.2675781C 15.199219 6.7135787 14.753218 6.2675781 14.199219 6.2675781zM 1 8C 0.44600055 8 0 8.4460006 0 9L 0 15C 0 15.553999 0.44600055 16 1 16C 1.5539994 16 2 15.553999 2 15L 2 9C 2 8.4460006 1.5539994 8 1 8zM 23 8.90625C 22.446001 8.90625 22 9.3522506 22 9.90625L 22 14.09375C 22 14.647749 22.446001 15.09375 23 15.09375C 23.553999 15.09375 24 14.647749 24 14.09375L 24 9.90625C 24 9.3522506 23.553999 8.90625 23 8.90625zM 9.8007812 9.6523438C 9.2467818 9.6523438 8.8007812 10.098344 8.8007812 10.652344L 8.8007812 13.347656C 8.8007812 13.901656 9.2467818 14.347656 9.8007812 14.347656C 10.354781 14.347656 10.800781 13.901656 10.800781 13.347656L 10.800781 10.652344C 10.800781 10.098344 10.354781 9.6523438 9.8007812 9.6523438z" />
</svg>
